<?xml version="1.0" standalone="no"?>
<!DOCTYPE svg PUBLIC "-//W3C//DTD SVG 20010904//EN"
 "http://www.w3.org/TR/2001/REC-SVG-20010904/DTD/svg10.dtd">
<svg version="1.0" xmlns="http://www.w3.org/2000/svg"
 width="512.000000pt" height="512.000000pt" viewBox="0 0 512.000000 512.000000"
 preserveAspectRatio="xMidYMid meet">

<g transform="translate(0.000000,512.000000) scale(0.100000,-0.100000)"
fill="#000000" stroke="none">
<path d="M2391 5109 c-522 -33 -1011 -222 -1432 -554 -95 -75 -329 -309 -403
-402 -279 -355 -449 -741 -528 -1199 -30 -175 -33 -586 -5 -764 42 -272 122
-525 238 -760 137 -276 274 -466 488 -681 426 -425 954 -677 1549 -740 144
-15 511 -6 647 15 538 86 1037 339 1420 721 258 259 475 599 600 939 237 645
194 1386 -116 2011 -360 725 -1058 1246 -1848 1381 -117 20 -435 48 -476 42
-5 0 -66 -4 -134 -9z m289 -981 c60 -25 124 -89 152 -152 31 -71 31 -172 -1
-244 -29 -65 -105 -136 -172 -159 l-49 -18 0 -102 0 -103 -50 0 -50 0 0 100 0
100 -62 28 c-82 37 -117 68 -153 134 -27 48 -30 62 -30 143 0 81 3 95 30 144
76 138 239 192 385 129z m929 -923 c30 -17 71 -51 92 -77 72 -91 70 -68 67
-799 l-3 -654 -24 -49 c-31 -63 -84 -116 -147 -147 -48 -24 -54 -24 -396 -29
-291 -4 -350 -7 -362 -20 -8 -8 -71 -114 -141 -235 -69 -121 -130 -223 -134
-227 -3 -4 -69 100 -145 232 -101 177 -143 241 -159 245 -12 3 -173 6 -357 7
-328 3 -336 3 -378 26 -66 35 -119 88 -149 150 l-28 57 0 660 0 660 28 57 c33
67 109 140 170 162 36 13 172 14 1027 13 l985 -2 54 -30z m-2369 -860 l0 -495
-64 0 c-78 0 -121 25 -154 90 -23 45 -23 47 -20 422 3 364 4 377 24 405 39 53
81 73 150 73 l64 0 0 -495z m2801 471 c70 -48 70 -49 67 -483 l-3 -388 -24
-32 c-33 -43 -78 -63 -145 -63 l-56 0 0 495 0 495 63 0 c50 0 70 -5 98 -24z"/>
<path d="M1831 2763 c-133 -48 -197 -214 -132 -342 85 -165 328 -175 425 -17
35 56 46 149 26 211 -16 48 -73 111 -124 137 -53 27 -139 32 -195 11z m160
-110 c32 -19 69 -85 69 -122 0 -88 -99 -159 -182 -132 -112 37 -133 192 -35
251 40 25 109 26 148 3z"/>
<path d="M3111 2763 c-99 -36 -170 -151 -158 -254 21 -179 221 -277 374 -183
158 98 147 341 -20 425 -54 28 -140 33 -196 12z m174 -124 c49 -44 63 -95 41
-154 -40 -104 -160 -125 -236 -39 -24 28 -30 44 -30 80 0 88 55 144 142 144
39 0 54 -6 83 -31z"/>
<path d="M2168 2069 c-48 -28 20 -151 123 -222 219 -151 508 -97 648 121 36
56 38 73 13 95 -27 25 -59 21 -79 -9 -10 -15 -39 -50 -66 -79 -148 -162 -413
-141 -538 43 -45 65 -62 74 -101 51z"/>
</g>
</svg>
