<?xml version="1.0" standalone="no"?>
<!DOCTYPE svg PUBLIC "-//W3C//DTD SVG 20010904//EN"
 "http://www.w3.org/TR/2001/REC-SVG-20010904/DTD/svg10.dtd">
<svg version="1.0" xmlns="http://www.w3.org/2000/svg"
 width="512.000000pt" height="512.000000pt" viewBox="0 0 512.000000 512.000000"
 preserveAspectRatio="xMidYMid meet">

<g transform="translate(0.000000,512.000000) scale(0.100000,-0.100000)"
fill="#000000" stroke="none">
<path d="M2485 4871 c-135 -35 -231 -150 -243 -287 -10 -128 54 -242 170 -303
l68 -36 0 -202 0 -203 -56 0 c-87 0 -133 -18 -189 -75 -50 -49 -75 -102 -75
-157 0 -24 -3 -24 -127 -37 -237 -23 -562 -87 -757 -148 -89 -27 -214 -87
-285 -136 -212 -143 -368 -378 -411 -617 -6 -36 -13 -75 -16 -87 -4 -22 -9
-23 -101 -23 -52 0 -114 -5 -137 -12 -55 -16 -138 -99 -154 -154 -17 -58 -17
-890 0 -948 16 -55 99 -138 154 -154 23 -7 85 -12 138 -12 69 0 98 -4 100 -12
2 -7 8 -45 15 -84 33 -219 178 -454 364 -595 99 -75 250 -149 372 -184 667
-190 1482 -216 2201 -70 360 73 521 138 694 280 172 141 313 391 338 600 l7
60 115 5 c84 4 125 10 153 24 49 24 110 95 125 144 17 56 17 889 0 946 -16 55
-99 138 -154 154 -23 7 -85 12 -138 12 -69 0 -98 4 -100 13 -2 6 -8 44 -15 83
-34 221 -178 456 -368 598 -160 120 -326 183 -655 250 -169 35 -454 76 -523
76 -31 0 -35 3 -35 26 0 57 -25 109 -75 159 -56 57 -102 75 -189 75 l-56 0 0
203 0 202 65 34 c72 37 103 68 143 145 23 44 27 63 27 136 -1 77 -4 91 -35
148 -56 104 -143 160 -259 167 -36 2 -79 1 -96 -4z m141 -167 c103 -49 125
-175 45 -255 -66 -66 -159 -65 -223 2 -122 128 19 328 178 253z m149 -1049
l25 -24 0 -311 0 -311 -25 -24 c-24 -25 -26 -25 -215 -25 -189 0 -191 0 -215
25 l-25 24 0 311 0 311 25 24 c24 25 26 25 215 25 189 0 191 0 215 -25z m-615
-393 l0 -158 -142 -17 c-162 -20 -406 -68 -506 -99 -274 -84 -486 -299 -537
-543 -21 -102 -21 -948 0 -1050 30 -144 126 -293 255 -396 134 -108 296 -165
615 -219 267 -45 402 -55 725 -54 379 0 632 27 938 100 288 67 475 202 583
419 66 133 69 161 69 675 0 514 -3 542 -69 675 -84 169 -222 292 -416 370 -96
38 -337 90 -542 117 l-173 23 0 157 0 158 30 0 c118 0 511 -68 725 -126 292
-78 490 -230 600 -459 83 -172 80 -141 80 -915 0 -636 -1 -690 -19 -755 -67
-253 -244 -458 -486 -562 -168 -72 -538 -148 -900 -185 -163 -16 -697 -16
-860 0 -253 26 -460 61 -665 113 -202 51 -277 82 -390 160 -164 113 -279 278
-331 474 -18 65 -19 118 -19 755 0 637 1 690 19 755 74 280 280 497 561 590
186 62 651 150 813 154 l42 1 0 -158z m-246 -794 c86 -26 166 -136 166 -228 0
-124 -116 -240 -240 -240 -124 0 -240 116 -240 240 0 63 23 114 75 165 70 71
145 90 239 63z m1440 0 c86 -26 166 -136 166 -228 0 -124 -116 -240 -240 -240
-124 0 -240 116 -240 240 0 63 23 114 75 165 70 71 145 90 239 63z m-257 -734
c24 -25 25 -30 20 -99 -12 -133 -68 -254 -163 -349 -220 -219 -568 -219 -788
0 -102 103 -166 251 -166 386 0 28 7 46 25 63 l24 25 511 0 511 0 26 -26z"/>
</g>
</svg>
