<?xml version="1.0" standalone="no"?>
<!DOCTYPE svg PUBLIC "-//W3C//DTD SVG 20010904//EN"
 "http://www.w3.org/TR/2001/REC-SVG-20010904/DTD/svg10.dtd">
<svg version="1.0" xmlns="http://www.w3.org/2000/svg"
 width="612.000000pt" height="510.000000pt" viewBox="0 0 612.000000 510.000000"
 preserveAspectRatio="xMidYMid meet">

<g transform="translate(0.000000,510.000000) scale(0.100000,-0.100000)"
fill="#000000" stroke="none">
<path d="M2997 4195 c-102 -36 -153 -153 -112 -253 20 -46 48 -77 86 -93 l30
-12 -3 -101 -3 -101 -260 -6 c-268 -7 -320 -14 -455 -59 -316 -106 -587 -337
-734 -626 -35 -70 -37 -72 -81 -79 -252 -37 -446 -259 -445 -508 1 -240 186
-460 422 -499 l67 -11 30 -61 c56 -112 135 -220 236 -321 115 -116 201 -178
335 -246 174 -87 330 -124 564 -135 l145 -7 12 -28 c14 -35 75 -91 126 -117
206 -105 484 18 483 214 -1 65 -27 120 -82 170 -65 60 -123 79 -238 79 -88 0
-101 -3 -163 -33 -67 -33 -137 -105 -137 -140 0 -13 -21 -14 -152 -9 -93 4
-187 14 -239 26 -408 93 -739 404 -853 802 -48 167 -57 319 -31 492 64 426
370 786 780 916 150 48 212 55 450 56 l220 0 3 -97 c2 -61 -1 -98 -7 -98 -6 0
-36 -10 -67 -21 -65 -24 -134 -83 -158 -133 l-16 -34 -177 -4 c-167 -4 -183
-6 -266 -35 -230 -81 -397 -247 -480 -476 -25 -70 -30 -101 -34 -212 -5 -111
-2 -144 16 -215 56 -228 207 -413 416 -510 163 -77 146 -75 835 -75 689 0 672
-2 835 75 219 102 376 300 424 538 18 87 14 248 -9 338 -68 271 -282 484 -554
554 -63 16 -111 20 -232 20 l-154 0 -13 33 c-21 48 -96 111 -161 136 -31 11
-61 21 -67 21 -6 0 -9 37 -7 98 l3 97 220 -1 c289 -1 411 -24 594 -111 315
-151 545 -443 627 -794 14 -60 18 -140 21 -411 l5 -338 22 0 c106 0 248 63
333 149 301 301 132 800 -294 866 -41 6 -44 10 -79 78 -122 240 -341 452 -585
566 -204 95 -296 113 -609 120 l-255 6 -3 95 -3 96 46 32 c132 93 100 299 -53
342 -48 13 -68 12 -115 -5z m-447 -1600 c74 -38 81 -158 13 -209 -32 -24 -100
-31 -133 -14 -36 20 -70 75 -70 117 0 41 28 88 62 107 31 18 93 17 128 -1z
m1150 -2 c73 -43 80 -142 14 -202 -33 -31 -40 -33 -87 -28 -119 11 -160 147
-69 224 33 28 101 31 142 6z m-324 -424 c-26 -132 -152 -219 -316 -219 -164 0
-290 87 -316 219 l-6 31 322 0 323 0 -7 -31z"/>
</g>
</svg>
