<?xml version="1.0" standalone="no"?>
<!DOCTYPE svg PUBLIC "-//W3C//DTD SVG 20010904//EN"
 "http://www.w3.org/TR/2001/REC-SVG-20010904/DTD/svg10.dtd">
<svg version="1.0" xmlns="http://www.w3.org/2000/svg"
 width="512.000000pt" height="512.000000pt" viewBox="0 0 512.000000 512.000000"
 preserveAspectRatio="xMidYMid meet">

<g transform="translate(0.000000,512.000000) scale(0.100000,-0.100000)"
fill="#000000" stroke="none">
<path d="M2465 4617 c-149 -58 -216 -214 -151 -353 24 -52 94 -121 133 -130
22 -6 23 -10 23 -120 l0 -114 75 0 75 0 0 109 0 108 57 34 c141 83 172 265 66
388 -67 79 -188 112 -278 78z"/>
<path d="M1296 3664 c-138 -33 -275 -142 -338 -269 -65 -130 -63 -97 -63
-1010 0 -777 1 -834 18 -889 57 -183 169 -304 344 -369 52 -19 84 -22 318 -27
l260 -5 5 -277 5 -277 413 273 413 273 121 6 c67 4 311 7 542 7 340 0 433 3
485 15 184 44 327 184 388 381 17 55 18 112 18 894 0 782 -1 839 -18 894 -61
198 -203 337 -388 381 -93 22 -2432 21 -2523 -1z m851 -550 c96 -46 150 -145
141 -258 -8 -98 -54 -168 -142 -214 -74 -39 -170 -38 -245 3 -93 51 -141 133
-141 241 0 40 8 67 33 114 70 135 214 181 354 114z m1058 7 c99 -44 155 -131
155 -240 -1 -285 -369 -370 -503 -117 -30 58 -31 174 0 231 19 36 59 79 106
115 54 40 164 45 242 11z m-1 -1058 c-54 -247 -236 -434 -484 -499 -86 -22
-253 -23 -340 -1 -153 39 -314 150 -395 273 -43 65 -82 155 -91 213 l-7 41
662 0 661 0 -6 -27z"/>
<path d="M575 2836 c-41 -18 -83 -69 -90 -109 -3 -18 -5 -187 -3 -377 3 -343
3 -345 26 -378 38 -53 88 -72 187 -72 l85 0 0 475 0 475 -87 0 c-50 -1 -101
-6 -118 -14z"/>
<path d="M4340 2376 l0 -476 85 0 c99 0 149 19 187 72 l23 33 0 372 c0 360 -1
372 -21 399 -43 59 -68 69 -175 72 l-99 4 0 -476z"/>
</g>
</svg>
