<?xml version="1.0" standalone="no"?>
<!DOCTYPE svg PUBLIC "-//W3C//DTD SVG 20010904//EN"
 "http://www.w3.org/TR/2001/REC-SVG-20010904/DTD/svg10.dtd">
<svg version="1.0" xmlns="http://www.w3.org/2000/svg"
 width="512.000000pt" height="512.000000pt" viewBox="0 0 512.000000 512.000000"
 preserveAspectRatio="xMidYMid meet">

<g transform="translate(0.000000,512.000000) scale(0.100000,-0.100000)"
fill="#000000" stroke="none">
<path d="M4197 4842 c-23 -26 -24 -187 -1 -220 19 -28 74 -30 97 -4 26 28 24
202 -1 225 -25 22 -75 21 -95 -1z"/>
<path d="M3943 4574 c-27 -6 -53 -40 -53 -69 0 -12 10 -31 23 -43 20 -19 35
-22 115 -22 103 0 132 15 132 68 0 48 -30 65 -118 68 -42 1 -87 0 -99 -2z"/>
<path d="M4395 4573 c-54 -14 -73 -75 -35 -113 17 -17 33 -20 109 -20 101 0
134 15 134 64 0 50 -33 70 -116 73 -39 1 -81 -1 -92 -4z"/>
<path d="M3453 4530 c-33 -13 -46 -47 -41 -107 3 -37 10 -58 24 -68 27 -20 68
-18 88 4 40 44 27 154 -21 172 -13 5 -25 9 -26 8 -1 0 -12 -4 -24 -9z"/>
<path d="M4200 4390 c-17 -17 -20 -33 -20 -108 0 -99 9 -119 56 -128 25 -5 37
-1 53 15 18 18 21 33 21 111 0 100 -15 130 -65 130 -14 0 -34 -9 -45 -20z"/>
<path d="M3238 4300 c-33 -25 -36 -58 -9 -91 16 -21 28 -24 81 -24 53 0 65 3
81 24 42 52 10 102 -72 109 -45 3 -59 0 -81 -18z"/>
<path d="M3592 4310 c-29 -12 -44 -52 -32 -85 23 -61 171 -60 186 2 9 36 -3
68 -31 81 -30 14 -90 15 -123 2z"/>
<path d="M3442 4154 c-19 -13 -22 -24 -22 -78 0 -75 15 -99 60 -99 46 0 70 32
70 93 0 82 -53 123 -108 84z"/>
<path d="M240 3795 c-149 -48 -225 -231 -154 -373 29 -58 90 -116 140 -132 19
-7 34 -18 34 -25 0 -7 -11 -66 -25 -131 -31 -142 -30 -165 8 -178 24 -9 41 -3
123 37 52 26 96 47 99 47 2 0 7 -20 10 -45 7 -41 4 -48 -28 -86 -160 -186
-180 -472 -48 -678 70 -109 204 -204 329 -233 l52 -13 0 -108 c0 -59 7 -143
16 -185 56 -276 252 -494 526 -585 l93 -31 289 -4 289 -4 -7 -67 c-9 -104 -42
-217 -91 -317 -52 -103 -57 -149 -22 -181 29 -27 61 -43 86 -43 56 0 222 77
311 143 129 97 306 294 382 427 l23 39 510 4 c569 4 555 2 712 78 194 93 345
271 408 484 12 38 20 110 24 199 l6 139 72 23 c178 54 314 181 374 349 30 84
37 238 15 325 -24 96 -70 183 -133 250 -48 53 -54 63 -48 89 l6 30 90 -44 c98
-50 127 -55 154 -25 16 18 16 25 -14 160 -17 77 -31 142 -31 144 0 2 20 11 44
20 51 20 120 89 143 144 9 20 16 64 16 97 1 151 -115 269 -264 268 -284 -3
-359 -398 -96 -508 30 -12 37 -21 43 -52 3 -21 10 -55 14 -75 4 -21 6 -38 4
-38 -3 0 -31 14 -64 30 -98 50 -127 38 -150 -58 -11 -48 -15 -53 -34 -47 -11
4 -50 14 -86 23 l-65 16 -28 86 c-40 122 -96 211 -197 311 -71 71 -103 94
-181 133 -51 25 -130 56 -174 69 l-80 22 -1105 0 -1105 0 -80 -22 c-192 -54
-359 -172 -464 -328 -47 -71 -94 -177 -107 -242 -5 -26 -11 -33 -30 -33 -19 0
-103 -27 -165 -54 -13 -6 -19 5 -33 61 -10 37 -22 73 -28 80 -18 22 -70 14
-123 -17 -27 -16 -53 -30 -56 -30 -6 0 3 65 16 126 3 13 23 28 54 43 60 27
123 94 139 149 30 100 2 222 -64 284 -71 65 -185 92 -274 63z m150 -130 c92
-47 104 -164 24 -235 -60 -52 -156 -38 -205 32 -28 39 -31 113 -5 152 39 60
124 83 186 51z m4447 -5 c53 -32 67 -65 64 -144 -1 -40 -65 -101 -114 -110
-59 -11 -122 22 -147 76 -11 24 -20 52 -20 62 0 33 38 100 67 118 38 24 110
23 150 -2z m-1148 -95 c187 -44 360 -185 442 -360 65 -138 64 -125 64 -830 l0
-640 -28 -80 c-70 -199 -205 -336 -405 -414 l-67 -26 -552 -5 c-303 -3 -553
-7 -555 -10 -3 -3 -30 -47 -62 -98 -32 -51 -98 -137 -147 -192 -142 -158 -323
-309 -344 -288 -4 4 10 47 30 98 50 124 83 263 91 377 6 76 4 97 -7 104 -8 5
-163 9 -344 9 -362 0 -392 4 -514 60 -132 62 -239 171 -305 310 -66 140 -67
162 -64 855 4 688 1 655 74 795 87 167 243 291 420 334 91 22 2180 23 2273 1z
m-2909 -1031 l0 -416 -31 6 c-48 9 -139 65 -186 114 -53 55 -100 149 -114 231
-32 178 66 367 232 450 109 54 99 92 99 -385z m3654 395 c198 -74 305 -367
208 -573 -50 -108 -167 -206 -274 -232 l-28 -6 0 416 c0 475 -10 434 94 395z"/>
<path d="M1685 3160 c-230 -22 -428 -156 -534 -359 -72 -139 -74 -151 -78
-578 -3 -252 -1 -407 6 -455 31 -197 183 -370 359 -407 75 -16 2140 -15 2214
0 153 33 297 172 348 337 19 59 20 93 20 471 0 370 -2 415 -19 483 -72 282
-300 477 -595 508 -102 11 -1610 11 -1721 0z m1801 -150 c78 -20 154 -59 220
-113 53 -44 123 -150 153 -230 l26 -72 0 -425 0 -425 -28 -56 c-39 -80 -95
-140 -163 -174 l-59 -30 -1090 0 -1090 0 -57 28 c-67 33 -120 89 -157 167
l-26 55 -3 422 -3 422 26 77 c32 94 79 168 152 234 62 56 173 114 248 128 29
6 417 10 911 11 833 1 863 0 940 -19z"/>
<path d="M1879 2557 c-64 -34 -102 -100 -102 -177 0 -217 288 -279 387 -83 46
92 -11 236 -107 272 -49 19 -130 13 -178 -12z m81 -87 c11 -11 20 -26 20 -33
0 -22 -31 -57 -51 -57 -23 0 -59 34 -59 55 0 8 9 24 20 35 11 11 27 20 35 20
8 0 24 -9 35 -20z"/>
<path d="M3025 2563 c-98 -51 -141 -162 -100 -261 64 -151 273 -167 360 -27
60 97 26 229 -74 282 -53 28 -140 31 -186 6z m67 -90 c36 -32 13 -93 -36 -93
-45 0 -63 55 -29 92 20 22 41 23 65 1z"/>
<path d="M2291 2114 c-21 -15 -23 -23 -19 -73 12 -156 137 -260 297 -249 79 6
134 32 184 87 49 55 68 94 74 157 7 66 -12 94 -62 94 -40 0 -60 -23 -68 -75
-11 -70 -80 -135 -144 -135 -76 0 -134 50 -152 129 -17 75 -59 100 -110 65z"/>
</g>
</svg>
