<?xml version="1.0" standalone="no"?>
<!DOCTYPE svg PUBLIC "-//W3C//DTD SVG 20010904//EN"
 "http://www.w3.org/TR/2001/REC-SVG-20010904/DTD/svg10.dtd">
<svg version="1.0" xmlns="http://www.w3.org/2000/svg"
 width="512.000000pt" height="512.000000pt" viewBox="0 0 512.000000 512.000000"
 preserveAspectRatio="xMidYMid meet">

<g transform="translate(0.000000,512.000000) scale(0.100000,-0.100000)"
fill="#000000" stroke="none">
<path d="M3098 4789 c-68 -35 -78 -71 -78 -279 0 -161 2 -185 20 -220 23 -45
80 -80 130 -80 50 0 107 35 130 80 16 31 20 59 20 130 l0 90 300 0 300 0 0
-1350 0 -1350 -90 0 c-71 0 -99 -4 -130 -20 -45 -23 -80 -80 -80 -130 0 -50
35 -107 80 -130 37 -19 58 -20 370 -20 312 0 333 1 370 20 45 23 80 80 80 130
0 50 -35 107 -80 130 -31 16 -59 20 -130 20 l-90 0 0 1350 0 1350 300 0 300 0
0 -90 c0 -71 4 -99 20 -130 23 -45 80 -80 130 -80 50 0 107 35 130 80 18 35
20 59 20 220 0 210 -10 244 -80 280 -38 20 -56 20 -972 20 -909 -1 -934 -1
-970 -21z"/>
<path d="M1588 3889 c-68 -35 -78 -71 -78 -279 0 -161 2 -185 20 -220 23 -45
80 -80 130 -80 50 0 107 35 130 80 16 31 20 59 20 130 l0 90 225 0 225 0 0
-900 0 -900 -90 0 c-71 0 -99 -4 -130 -20 -45 -23 -80 -80 -80 -130 0 -50 35
-107 80 -130 37 -19 58 -20 370 -20 312 0 333 1 370 20 45 23 80 80 80 130 0
50 -35 107 -80 130 -31 16 -59 20 -130 20 l-90 0 0 900 0 900 225 0 225 0 0
-90 c0 -71 4 -99 20 -130 23 -45 80 -80 130 -80 50 0 107 35 130 80 18 35 20
59 20 220 0 210 -10 244 -80 280 -38 20 -57 20 -822 20 -760 -1 -784 -1 -820
-21z"/>
<path d="M78 2989 c-68 -35 -78 -71 -78 -279 0 -161 2 -185 20 -220 23 -45 80
-80 130 -80 50 0 107 35 130 80 16 31 20 59 20 130 l0 90 150 0 150 0 0 -450
0 -450 -90 0 c-71 0 -99 -4 -130 -20 -45 -23 -80 -80 -80 -130 0 -50 35 -107
80 -130 37 -19 58 -20 370 -20 312 0 333 1 370 20 45 23 80 80 80 130 0 50
-35 107 -80 130 -31 16 -59 20 -130 20 l-90 0 0 450 0 450 150 0 150 0 0 -90
c0 -71 4 -99 20 -130 23 -45 80 -80 130 -80 50 0 107 35 130 80 18 35 20 59
20 220 0 210 -10 244 -80 280 -38 19 -57 20 -672 20 -610 -1 -634 -2 -670 -21z"/>
<path d="M78 1189 c-23 -12 -46 -35 -58 -59 -19 -37 -20 -58 -20 -370 0 -312
1 -333 20 -370 23 -45 80 -80 130 -80 50 0 107 35 130 80 16 31 20 59 20 130
l0 90 2260 0 2260 0 0 -90 c0 -71 4 -99 20 -130 23 -45 80 -80 130 -80 50 0
107 35 130 80 19 37 20 58 20 370 0 312 -1 333 -20 370 -23 45 -80 80 -130 80
-50 0 -107 -35 -130 -80 -16 -31 -20 -59 -20 -130 l0 -90 -2260 0 -2260 0 0
90 c0 112 -20 159 -80 190 -49 25 -94 25 -142 -1z"/>
</g>
</svg>
