<?xml version="1.0" standalone="no"?>
<!DOCTYPE svg PUBLIC "-//W3C//DTD SVG 20010904//EN"
 "http://www.w3.org/TR/2001/REC-SVG-20010904/DTD/svg10.dtd">
<svg version="1.0" xmlns="http://www.w3.org/2000/svg"
 width="512.000000pt" height="512.000000pt" viewBox="0 0 512.000000 512.000000"
 preserveAspectRatio="xMidYMid meet">

<g transform="translate(0.000000,512.000000) scale(0.100000,-0.100000)"
fill="#000000" stroke="none">
<path d="M1351 4691 c-50 -9 -71 -31 -71 -76 0 -60 22 -69 188 -71 165 -2 284
-20 414 -64 194 -65 361 -166 508 -308 l90 -87 0 -116 0 -115 -72 14 c-250 50
-501 -129 -540 -386 -38 -243 131 -477 377 -523 61 -11 166 -6 210 11 l25 10
0 -170 0 -170 -1102 2 -1102 3 -39 99 c-37 96 -75 241 -66 251 3 2 29 -5 59
-16 212 -80 467 24 569 234 135 276 -36 604 -342 658 -38 6 -84 9 -103 6 -19
-3 -34 -2 -34 3 0 27 119 181 214 276 146 147 246 211 489 317 49 22 64 59 43
104 -24 50 -53 52 -159 9 -97 -38 -225 -111 -329 -186 -150 -109 -325 -317
-415 -493 -50 -98 -55 -146 -19 -182 35 -35 67 -40 128 -19 210 72 421 -74
423 -291 0 -60 -5 -80 -33 -137 -57 -116 -147 -172 -277 -172 -89 0 -141 18
-209 73 -69 55 -157 33 -172 -44 -9 -52 24 -237 66 -365 68 -210 176 -391 325
-548 89 -94 1165 -1032 1198 -1045 51 -19 109 39 91 91 -6 17 -200 192 -554
499 -299 260 -564 492 -588 515 -52 50 -162 185 -162 199 0 5 406 9 1050 9
l1050 0 0 -255 c0 -272 6 -311 48 -334 32 -17 79 -13 135 12 75 32 193 31 261
-2 110 -54 167 -142 174 -267 4 -72 1 -89 -20 -136 -35 -75 -79 -122 -150
-158 -82 -41 -185 -43 -266 -5 -71 33 -104 32 -144 -4 l-33 -29 -5 -356 -5
-355 -275 239 c-151 131 -285 241 -298 245 -55 14 -108 -47 -85 -98 18 -39
565 -508 626 -537 76 -36 166 -34 241 6 32 17 192 148 383 314 385 335 848
737 1203 1045 140 121 294 255 342 298 313 279 488 646 505 1062 6 139 -15
337 -42 402 -18 43 -54 60 -94 44 -45 -19 -54 -53 -36 -141 8 -41 18 -131 21
-200 10 -194 -19 -361 -98 -562 l-31 -78 -454 0 c-430 0 -455 1 -448 18 18 41
18 193 0 258 -46 171 -199 306 -377 334 -225 35 -454 -114 -513 -334 -17 -64
-17 -197 0 -253 l7 -23 -211 0 -211 0 0 225 c0 252 -3 265 -66 285 -31 11 -43
8 -102 -17 -130 -55 -264 -32 -357 62 -64 64 -89 125 -89 220 0 129 56 220
171 277 89 44 168 45 270 4 81 -32 111 -30 149 11 23 25 24 30 24 198 l0 172
98 94 c255 247 560 371 917 372 281 1 518 -71 755 -228 108 -71 273 -240 347
-355 92 -142 99 -150 138 -150 35 0 75 36 75 67 0 27 -69 146 -134 233 -356
474 -969 688 -1545 539 -249 -64 -459 -181 -661 -367 l-65 -59 -82 78 c-255
240 -594 379 -963 393 -63 3 -135 1 -159 -3z m2212 -1596 c192 -50 288 -245
212 -430 -33 -79 -32 -110 4 -146 l29 -29 466 0 c256 0 466 -3 466 -7 0 -5
-33 -48 -73 -98 -60 -74 -248 -242 -1048 -937 -536 -466 -977 -847 -981 -847
-5 -1 -8 132 -8 295 l0 296 33 -9 c17 -4 82 -8 142 -8 104 0 114 2 176 33 171
83 269 236 269 419 0 225 -149 408 -369 454 -53 11 -164 8 -224 -7 l-27 -6 2
208 3 209 272 3 271 2 26 31 c33 38 33 66 0 148 -23 56 -26 76 -22 141 9 143
93 248 231 285 68 18 82 18 150 0z"/>
</g>
</svg>
