<?xml version="1.0" standalone="no"?>
<!DOCTYPE svg PUBLIC "-//W3C//DTD SVG 20010904//EN"
 "http://www.w3.org/TR/2001/REC-SVG-20010904/DTD/svg10.dtd">
<svg version="1.0" xmlns="http://www.w3.org/2000/svg"
 width="512.000000pt" height="512.000000pt" viewBox="0 0 512.000000 512.000000"
 preserveAspectRatio="xMidYMid meet">

<g transform="translate(0.000000,512.000000) scale(0.100000,-0.100000)"
fill="#000000" stroke="none">
<path d="M100 5101 c-19 -10 -48 -35 -65 -55 l-30 -38 -3 -1615 c-2 -1574 -2
-1616 17 -1658 13 -29 34 -53 62 -72 l43 -28 608 -3 c334 -1 608 -6 608 -10 0
-5 -34 -226 -75 -493 -84 -545 -83 -535 -14 -601 21 -20 51 -39 66 -42 15 -4
480 -76 1033 -161 2278 -352 2118 -329 2160 -316 49 15 99 56 115 96 7 16 32
158 56 313 l44 284 -28 24 c-16 13 -41 24 -57 24 -47 0 -66 -35 -79 -147 -29
-242 -68 -434 -90 -448 -5 -3 -83 7 -173 21 -89 14 -788 122 -1552 240 -765
118 -1393 219 -1396 225 -4 5 1 60 11 122 9 62 43 282 75 489 l58 378 83 0
c46 0 83 -4 83 -8 0 -4 -27 -181 -60 -392 -33 -212 -60 -393 -60 -402 0 -9 10
-28 23 -42 21 -25 60 -32 1322 -227 715 -110 1329 -203 1365 -206 59 -5 67 -3
87 18 19 21 44 170 227 1359 113 734 206 1349 206 1366 0 66 11 63 -640 163
-327 50 -607 94 -622 97 -28 6 -28 6 -28 85 0 72 2 79 20 79 41 0 1455 -222
1463 -230 5 -4 -69 -508 -163 -1119 -96 -618 -169 -1123 -166 -1137 9 -35 62
-59 99 -45 15 6 32 21 37 33 10 24 350 2227 350 2266 0 58 -59 131 -123 151
-18 6 -356 60 -752 121 -396 61 -730 113 -742 115 l-23 5 0 658 0 657 -23 39
c-14 25 -39 48 -66 63 l-44 23 -1606 0 c-1545 0 -1608 -1 -1641 -19z m3225
-1726 l0 -1590 -1565 -3 c-861 -1 -1575 0 -1587 3 l-23 5 0 1584 c0 870 3
1586 7 1589 3 4 718 6 1587 5 l1581 -3 0 -1590z m1280 -347 c8 -8 -375 -2499
-386 -2512 -6 -6 -2500 369 -2516 379 -2 1 23 166 54 368 l57 367 750 0 c486
0 764 4 788 10 21 6 51 22 68 37 63 52 60 13 60 801 0 395 2 721 5 723 6 7
1112 -164 1120 -173z"/>
<path d="M375 4803 c-11 -3 -28 -12 -37 -21 -16 -13 -18 -38 -18 -238 l0 -223
26 -20 c31 -24 43 -26 78 -10 38 18 46 58 46 221 l0 148 1273 -2 1272 -3 3
-1277 2 -1278 -1275 0 -1275 0 -2 946 -3 946 -24 19 c-30 25 -76 24 -101 -1
-20 -20 -20 -33 -20 -1020 0 -987 0 -1000 20 -1020 20 -20 33 -20 1400 -20
l1381 0 24 25 25 24 0 1375 0 1375 -24 28 -24 28 -1364 1 c-749 1 -1372 0
-1383 -3z"/>
<path d="M1255 4136 c-130 -32 -260 -140 -323 -270 -85 -174 -78 -372 19 -575
112 -237 371 -468 699 -626 41 -19 83 -35 92 -35 31 0 211 96 334 178 330 221
515 490 531 772 9 168 -44 314 -157 427 -185 187 -452 192 -645 12 l-63 -59
-54 52 c-119 116 -278 162 -433 124z m240 -169 c66 -33 124 -92 163 -165 33
-62 46 -72 91 -72 32 0 50 17 81 78 32 65 95 128 159 159 47 24 69 28 136 28
68 0 88 -5 130 -27 63 -34 83 -52 128 -111 45 -59 77 -159 77 -241 -1 -274
-212 -544 -601 -766 l-111 -64 -76 38 c-189 93 -401 259 -504 396 -107 141
-162 316 -141 450 25 157 115 273 246 316 63 21 162 12 222 -19z"/>
</g>
</svg>
